<svg width="21" height="19" viewBox="0 0 21 19" fill="none" xmlns="http://www.w3.org/2000/svg">
<path d="M16.107 3.287C15.8578 3.287 15.6142 3.35386 15.407 3.47912C15.1998 3.60439 15.0383 3.78243 14.9429 3.99074C14.8475 4.19905 14.8226 4.42826 14.8712 4.6494C14.9198 4.87054 15.0398 5.07367 15.216 5.2331C15.3923 5.39253 15.6168 5.50111 15.8612 5.54509C16.1056 5.58908 16.3589 5.56651 16.5892 5.48022C16.8194 5.39394 17.0162 5.24782 17.1546 5.06035C17.2931 4.87288 17.367 4.65247 17.367 4.427C17.367 4.12465 17.2342 3.83469 16.998 3.6209C16.7617 3.40711 16.4412 3.287 16.107 3.287ZM20.937 5.586C20.9166 4.79778 20.7534 4.01793 20.454 3.2775C20.187 2.64398 19.7715 2.07031 19.236 1.596C18.7161 1.10905 18.0805 0.735468 17.3775 0.5035C16.5613 0.224353 15.6984 0.0733495 14.826 0.0569999C13.713 -5.30854e-08 13.356 0 10.5 0C7.644 0 7.287 -5.30854e-08 6.174 0.0569999C5.30161 0.0733495 4.43871 0.224353 3.6225 0.5035C2.92076 0.737816 2.28578 1.11108 1.764 1.596C1.2258 2.06642 0.812885 2.64142 0.5565 3.2775C0.247969 4.01598 0.0810705 4.79669 0.0629999 5.586C-5.86733e-08 6.593 0 6.916 0 9.5C0 12.084 -5.86733e-08 12.407 0.0629999 13.414C0.0810705 14.2033 0.247969 14.984 0.5565 15.7225C0.812885 16.3586 1.2258 16.9336 1.764 17.404C2.28578 17.8889 2.92076 18.2622 3.6225 18.4965C4.43871 18.7756 5.30161 18.9267 6.174 18.943C7.287 19 7.644 19 10.5 19C13.356 19 13.713 19 14.826 18.943C15.6984 18.9267 16.5613 18.7756 17.3775 18.4965C18.0805 18.2645 18.7161 17.8909 19.236 17.404C19.7739 16.9315 20.1898 16.3573 20.454 15.7225C20.7534 14.9821 20.9166 14.2022 20.937 13.414C20.937 12.407 21 12.084 21 9.5C21 6.916 21 6.593 20.937 5.586ZM19.047 13.3C19.0394 13.903 18.9186 14.5005 18.69 15.067C18.5223 15.4804 18.2531 15.854 17.9025 16.1595C17.5619 16.4735 17.1499 16.7166 16.695 16.872C16.0689 17.0789 15.4085 17.1881 14.742 17.195C13.692 17.2425 13.3035 17.252 10.542 17.252C7.7805 17.252 7.392 17.252 6.342 17.195C5.64993 17.2067 4.96082 17.1103 4.305 16.91C3.87007 16.7467 3.47692 16.5041 3.15 16.1975C2.80149 15.8923 2.53559 15.5184 2.373 15.105C2.11665 14.5304 1.97447 13.9193 1.953 13.3C1.953 12.35 1.89 11.9985 1.89 9.5C1.89 7.0015 1.89 6.65 1.953 5.7C1.95771 5.0835 2.0821 4.47255 2.3205 3.895C2.50535 3.49402 2.78908 3.13658 3.15 2.85C3.469 2.52336 3.86325 2.26394 4.305 2.09C4.94503 1.88104 5.6196 1.77183 6.3 1.767C7.35 1.767 7.7385 1.71 10.5 1.71C13.2615 1.71 13.65 1.71 14.7 1.767C15.3665 1.77392 16.0269 1.88313 16.653 2.09C17.1302 2.25022 17.5584 2.5107 17.9025 2.85C18.2466 3.14182 18.5154 3.4986 18.69 3.895C18.9234 4.47349 19.0442 5.08419 19.047 5.7C19.0995 6.65 19.11 7.0015 19.11 9.5C19.11 11.9985 19.0995 12.35 19.047 13.3ZM10.5 4.6265C9.4351 4.62838 8.39471 4.9158 7.51029 5.45245C6.62586 5.98909 5.9371 6.75089 5.53102 7.64157C5.12493 8.53225 5.01976 9.51184 5.22878 10.4566C5.43781 11.4013 5.95165 12.2688 6.70538 12.9494C7.45911 13.6301 8.41891 14.0933 9.4635 14.2805C10.5081 14.4678 11.5906 14.3708 12.5742 14.0016C13.5579 13.6325 14.3985 13.0078 14.9899 12.2066C15.5813 11.4053 15.897 10.4635 15.897 9.5C15.8984 8.85885 15.7597 8.22378 15.4888 7.63131C15.2179 7.03884 14.8203 6.50067 14.3187 6.04775C13.8171 5.59483 13.2215 5.23609 12.5662 4.99218C11.9108 4.74827 11.2086 4.62399 10.5 4.6265ZM10.5 12.6635C9.80846 12.6635 9.13244 12.478 8.55745 12.1304C7.98245 11.7827 7.5343 11.2887 7.26965 10.7106C7.00501 10.1326 6.93577 9.49649 7.07068 8.88283C7.2056 8.26917 7.53861 7.70549 8.0276 7.26307C8.51659 6.82064 9.13961 6.51935 9.81787 6.39729C10.4961 6.27522 11.1992 6.33787 11.8381 6.57731C12.477 6.81674 13.023 7.22222 13.4072 7.74245C13.7914 8.26269 13.9965 8.87432 13.9965 9.5C13.9965 9.91544 13.9061 10.3268 13.7303 10.7106C13.5546 11.0944 13.2971 11.4432 12.9724 11.7369C12.6477 12.0307 12.2623 12.2637 11.8381 12.4227C11.4138 12.5817 10.9592 12.6635 10.5 12.6635Z" fill="black"/>
</svg>
