<svg width="22" height="22" viewBox="0 0 22 22" fill="none" xmlns="http://www.w3.org/2000/svg">
<g clip-path="url(#clip0_269_1449)">
<path d="M11 0C4.92456 0 0 4.92456 0 11C0 17.0748 4.92456 22 11 22C17.0754 22 22 17.0748 22 11C22 4.92456 17.0754 0 11 0Z" fill="black"/>
<path d="M16.7021 15.7727V11.5535C16.7021 9.29302 15.4956 8.24115 13.8861 8.24115C12.5875 8.24115 12.0058 8.95546 11.682 9.45665V8.41371H9.23589C9.2682 9.10465 9.23589 15.7727 9.23589 15.7727H11.682V11.6628C11.682 11.4435 11.6978 11.2235 11.7625 11.0668C11.9391 10.6275 12.3413 10.1723 13.0171 10.1723C13.9026 10.1723 14.2567 10.8468 14.2567 11.8361V15.7734L16.7021 15.7727ZM6.65845 7.40927C7.51095 7.40927 8.04239 6.84346 8.04239 6.1374C8.02658 5.41552 7.51095 4.86621 6.67427 4.86621C5.83758 4.86621 5.29102 5.41552 5.29102 6.1374C5.29102 6.84415 5.82177 7.40927 6.64333 7.40927H6.65845ZM7.88152 15.7727V8.41371H5.43608V15.7727H7.88152Z" fill="white"/>
</g>
<defs>
<clipPath id="clip0_269_1449">
<rect width="22" height="22" fill="white"/>
</clipPath>
</defs>
</svg>
