<svg width="21" height="16" viewBox="0 0 21 16" fill="none" xmlns="http://www.w3.org/2000/svg">
<path d="M0 1.8805V1.33333C0 0.979711 0.138281 0.640573 0.384422 0.390524C0.630564 0.140476 0.964403 0 1.3125 0L19.6875 0C20.0356 0 20.3694 0.140476 20.6156 0.390524C20.8617 0.640573 21 0.979711 21 1.33333V1.8805L10.5 8.54717L0 1.8805ZM10.8478 9.89883C10.7435 9.96498 10.623 10 10.5 10C10.377 10 10.2565 9.96498 10.1522 9.89883L0 3.45283V14.6667C0 15.0203 0.138281 15.3594 0.384422 15.6095C0.630564 15.8595 0.964403 16 1.3125 16H19.6875C20.0356 16 20.3694 15.8595 20.6156 15.6095C20.8617 15.3594 21 15.0203 21 14.6667V3.45283L10.8478 9.89883Z" fill="white"/>
</svg>
