<svg width="19" height="19" viewBox="0 0 19 19" fill="none" xmlns="http://www.w3.org/2000/svg">
<path d="M13.3483 0H4.69174C2.11459 0 0 2.09256 0 4.69174V13.7668C0 16.344 2.09256 18.4586 4.69174 18.4586H13.3704C15.9475 18.4586 18.0621 16.366 18.0621 13.7668V4.66971C18.0401 2.09256 15.9475 0 13.3483 0ZM14.9122 15.3308H11.5201C11.4981 15.3308 11.476 15.3308 11.476 15.3087L8.30416 10.7051H8.28213C7.00457 12.1809 5.74903 13.6347 4.51552 15.0664C4.44944 15.1545 4.36133 15.2206 4.29525 15.2867C4.27323 15.3087 4.2512 15.3087 4.22917 15.3087H3.30404C3.28201 15.3087 3.25999 15.3087 3.28201 15.2867L7.79754 10.0443C7.81956 10.0223 7.81956 10.0002 7.79754 9.9782L3.30404 3.4362V3.41418H6.71822C6.74024 3.41418 6.74024 3.41418 6.76227 3.4362L9.75794 7.77551C9.75794 7.77551 9.75794 7.77551 9.77996 7.77551L13.5025 3.4362C13.5245 3.41418 13.5466 3.41418 13.5686 3.41418H14.4937C14.5378 3.41418 14.5378 3.4362 14.5158 3.45823L10.2425 8.41429C10.2205 8.43632 10.2205 8.45835 10.2425 8.48037L14.9343 15.3087C14.9343 15.3087 14.9343 15.3308 14.9122 15.3308Z" fill="black"/>
<path d="M6.32205 4.20703H4.84625C4.82422 4.20703 4.82422 4.22906 4.82422 4.25109L11.9169 14.5377C11.9169 14.5377 11.9169 14.5377 11.9389 14.5377H13.3927C13.4147 14.5377 13.4147 14.5156 13.4147 14.4936L6.32205 4.20703Z" fill="black"/>
</svg>
